<svg width="316" height="507" viewBox="0 0 316 507" fill="none" xmlns="http://www.w3.org/2000/svg">
<path fill-rule="evenodd" clip-rule="evenodd" d="M71.2275 444.862C74.2918 437.431 76.8719 429.626 82.2145 423.448C82.5313 423.079 82.4898 422.523 82.1179 422.203C81.7449 421.886 81.1859 421.924 80.8658 422.292C75.3991 428.615 72.7188 436.582 69.5843 444.186C69.3967 444.634 69.6162 445.153 70.0702 445.338C70.5228 445.527 71.0399 445.311 71.2275 444.862Z" fill="white"/>
<path fill-rule="evenodd" clip-rule="evenodd" d="M59.9842 441.316C58.7127 438.145 58.0675 434.968 58.447 431.574C58.5015 431.09 58.1498 430.653 57.6637 430.594C57.1764 430.539 56.737 430.887 56.6837 431.369C56.2707 435.059 56.955 438.511 58.3363 441.959C58.5172 442.413 59.0334 442.638 59.4892 442.458C59.9433 442.282 60.1664 441.768 59.9842 441.316Z" fill="white"/>
<path fill-rule="evenodd" clip-rule="evenodd" d="M33.7958 438.719C30.5012 436.223 28.4128 432.998 27.5621 428.958C27.4615 428.481 26.991 428.172 26.5112 428.271C26.0326 428.366 25.7247 428.833 25.8252 429.309C26.7678 433.781 29.0769 437.355 32.7247 440.119C33.1146 440.416 33.6729 440.34 33.9677 439.955C34.2641 439.567 34.187 439.013 33.7958 438.719Z" fill="white"/>
<path fill-rule="evenodd" clip-rule="evenodd" d="M14.5712 473.732C15.0833 474.661 15.6794 475.547 16.3611 476.367C16.6645 476.733 17.3398 477.43 18.0219 477.76C18.7475 478.114 19.4783 478.105 20.0621 477.582C20.8369 476.887 21.0561 476.179 20.9931 475.543C20.9331 474.931 20.5821 474.336 20.0021 473.823C18.8933 472.842 16.887 472.154 15.6607 471.973C15.2138 471.021 14.8581 470.027 14.594 469.009C12.6269 461.422 17.5498 453.294 26.4912 449.019C29.6214 447.524 34.7327 448.189 40.0047 449.539C48.2137 451.64 56.7877 455.534 59.3307 456.594C59.9592 456.855 60.3588 456.94 60.4467 456.936C60.8762 456.924 61.0773 456.688 61.187 456.511C61.3429 456.254 61.3745 456.014 61.3498 455.8C61.3147 455.511 61.1663 455.228 60.8557 455.003C60.6836 454.88 60.4227 454.765 60.1366 454.662C59.9374 454.593 59.7073 454.55 59.5815 454.457C58.7772 453.853 58.0143 453.206 57.2427 452.562C54.6457 450.406 52.3503 448.025 50.1137 445.502C43.0067 437.484 35.339 429.425 31.4778 419.273C31.3045 418.818 30.7924 418.583 30.3339 418.754C29.8766 418.922 29.6458 419.429 29.8182 419.888C33.755 430.243 41.5374 438.486 48.7849 446.663C50.6876 448.809 52.6327 450.855 54.7607 452.752C50.3939 450.965 44.2848 448.659 38.5847 447.386C33.5154 446.254 28.7572 445.977 25.7143 447.43C15.9192 452.113 10.7199 461.131 12.8759 469.439C13.1069 470.328 13.4003 471.203 13.7578 472.05C6.23701 473.074 0.942973 479.418 1.43469 487.011C1.46555 487.498 1.88828 487.868 2.37655 487.841C2.86609 487.81 3.23682 487.394 3.20596 486.907C2.76301 480.064 7.68489 474.389 14.5712 473.732ZM16.8337 474.054C17.1108 474.467 17.4094 474.864 17.7276 475.251C17.8991 475.456 18.2378 475.828 18.6143 476.074C18.7029 476.131 18.8523 476.192 18.9219 476.219C19.1219 476.035 19.2445 475.879 19.2268 475.706C19.206 475.49 19.0291 475.317 18.8261 475.137C18.317 474.685 17.556 474.309 16.8337 474.054Z" fill="white"/>
<path fill-rule="evenodd" clip-rule="evenodd" d="M262.798 417.658C268.614 423.206 274.955 428.438 278.779 435.656C279.008 436.085 279.541 436.247 279.974 436.017C280.404 435.784 280.571 435.249 280.345 434.818C276.431 427.432 269.976 422.048 264.024 416.372C263.674 416.034 263.111 416.051 262.773 416.407C262.433 416.761 262.448 417.321 262.798 417.658Z" fill="white"/>
<path fill-rule="evenodd" clip-rule="evenodd" d="M270.175 408.463C273.592 408.427 276.787 408.976 279.813 410.559C280.245 410.785 280.78 410.616 281.01 410.184C281.238 409.75 281.073 409.214 280.643 408.99C277.353 407.268 273.888 406.656 270.173 406.694C269.684 406.698 269.288 407.098 269.29 407.588C269.29 408.075 269.689 408.469 270.175 408.463Z" fill="white"/>
<path fill-rule="evenodd" clip-rule="evenodd" d="M282.082 384.994C285.602 382.827 289.365 382.048 293.439 382.719C293.919 382.798 294.378 382.471 294.46 381.988C294.544 381.508 294.221 381.052 293.74 380.973C289.231 380.231 285.063 381.089 281.165 383.488C280.747 383.744 280.616 384.292 280.868 384.706C281.122 385.123 281.667 385.252 282.082 384.994Z" fill="white"/>
<path fill-rule="evenodd" clip-rule="evenodd" d="M256.41 354.392C255.359 354.533 254.317 354.768 253.306 355.106C252.855 355.256 251.961 355.633 251.406 356.15C250.813 356.698 250.557 357.382 250.833 358.116C251.2 359.09 251.781 359.551 252.396 359.722C252.988 359.888 253.67 359.776 254.359 359.422C255.675 358.743 257.042 357.122 257.655 356.045C258.705 355.973 259.76 356.002 260.805 356.124C268.588 357.039 274.382 364.572 275.127 374.454C275.387 377.914 272.916 382.437 269.748 386.862C264.816 393.752 258.081 400.333 256.172 402.32C255.701 402.811 255.477 403.153 255.449 403.236C255.305 403.641 255.452 403.914 255.577 404.08C255.76 404.319 255.973 404.435 256.18 404.489C256.463 404.561 256.781 404.526 257.103 404.318C257.279 404.202 257.481 404 257.681 403.771C257.817 403.61 257.941 403.411 258.073 403.328C258.927 402.797 259.807 402.32 260.687 401.834C263.637 400.195 266.687 398.917 269.849 397.747C279.897 394.026 290.186 389.799 301.048 389.877C301.535 389.88 301.939 389.488 301.945 388.998C301.955 388.511 301.565 388.113 301.075 388.107C289.998 388.026 279.495 392.294 269.248 396.087C266.559 397.083 263.947 398.156 261.409 399.452C264.656 396.029 269.018 391.17 272.269 386.318C275.161 382.003 277.143 377.668 276.89 374.306C276.073 363.48 269.551 355.367 261.026 354.367C260.114 354.26 259.192 354.217 258.273 354.243C260.043 346.862 256.047 339.63 248.791 337.338C248.326 337.19 247.828 337.45 247.677 337.915C247.528 338.383 247.782 338.879 248.247 339.027C254.785 341.092 258.293 347.736 256.41 354.392ZM255.29 356.384C254.806 356.493 254.327 356.628 253.852 356.784C253.598 356.87 253.129 357.051 252.763 357.312C252.678 357.374 252.567 357.491 252.516 357.547C252.615 357.8 252.717 357.971 252.884 358.017C253.093 358.075 253.319 357.973 253.56 357.849C254.166 357.539 254.791 356.965 255.29 356.384Z" fill="white"/>
<path fill-rule="evenodd" clip-rule="evenodd" d="M58.6053 121.161C50.1594 136.866 33.2879 143.251 17.6179 134.41C17.0962 134.115 16.4347 134.3 16.1403 134.815C15.8459 135.339 16.0299 136.002 16.5516 136.296C33.3477 145.782 51.4622 139.019 60.5153 122.192C60.7987 121.667 60.6009 121.005 60.0737 120.72C59.5465 120.444 58.8887 120.637 58.6053 121.161Z" fill="white"/>
<path d="M30.8048 127.674C32.5495 127.674 33.9638 126.26 33.9638 124.515C33.9638 122.771 32.5495 121.356 30.8048 121.356C29.0602 121.356 27.6459 122.771 27.6459 124.515C27.6459 126.26 29.0602 127.674 30.8048 127.674Z" fill="white"/>
<path d="M43.882 124.314C45.5925 124.314 46.9792 122.927 46.9792 121.217C46.9792 119.506 45.5925 118.12 43.882 118.12C42.1714 118.12 40.7848 119.506 40.7848 121.217C40.7848 122.927 42.1714 124.314 43.882 124.314Z" fill="white"/>
<path fill-rule="evenodd" clip-rule="evenodd" d="M119.716 10.6001C113.959 12.2268 107.312 13.8456 100.918 14.2498C95.4525 14.5948 90.1736 14.0589 85.8527 11.779C85.2436 11.458 84.4809 11.6787 84.1515 12.2728C83.8216 12.8664 84.0485 13.6097 84.6576 13.9312C89.3711 16.4177 95.1185 17.068 101.08 16.6912C107.589 16.2802 114.356 14.6506 120.228 13.0004C120.91 14.3457 122.321 15.5999 124.806 16.5253C128.624 17.9469 133.837 17.9293 139.328 17.1282C147.292 15.9669 155.86 13.1977 161.368 11.2299C161.594 11.1497 161.93 11.022 162.342 10.8536C162.468 11.1238 162.608 11.39 162.764 11.6513C164.115 13.9288 166.505 15.7702 168.94 16.4279C184.386 20.5983 202.412 15.6014 217.09 11.5348C217.753 11.3503 218.139 10.6731 217.953 10.0237C217.763 9.3743 217.07 8.997 216.402 9.18149C202.136 13.1345 184.622 18.1221 169.608 14.0697C167.76 13.5705 165.963 12.1553 164.938 10.4269C164.823 10.2341 164.722 10.0369 164.627 9.83674C166.65 8.85949 169.031 7.49712 170.311 6.03882C171.627 4.54383 171.953 2.94803 170.808 1.4408C169.824 0.152313 168.333 0.0426937 166.781 0.71067C165.109 1.42611 163.387 3.09872 162.829 3.88366C161.785 5.34978 161.453 6.94022 161.644 8.491C161.152 8.69359 160.752 8.84431 160.506 8.93239C155.118 10.8566 146.744 13.5725 138.956 14.7083C133.946 15.4394 129.186 15.5368 125.702 14.24C124.216 13.6865 123.234 13.0406 122.702 12.2909C123.753 11.9845 124.767 11.6831 125.736 11.3954C127.651 10.8262 131.64 9.88422 134.489 8.20522C136.755 6.87025 138.292 5.05423 138.203 2.77773C138.157 1.60816 137.462 0.827613 136.357 0.390125C134.706 -0.263171 131.85 0.0529492 130.786 0.273161C127.56 0.93967 123.255 3.6987 121.125 6.8076C120.275 8.04813 119.769 9.34591 119.716 10.6001ZM122.365 9.83575C123.277 9.56856 124.157 9.30626 125.004 9.05473C126.792 8.52329 130.529 7.67913 133.19 6.11122C134.599 5.28127 135.75 4.2869 135.694 2.87118C135.689 2.76108 135.577 2.72977 135.479 2.68475C135.325 2.61575 135.15 2.56827 134.963 2.53108C133.699 2.27954 132.002 2.52275 131.307 2.66662C128.6 3.22596 125 5.55776 123.213 8.16654C122.835 8.71756 122.535 9.27886 122.365 9.83575ZM164.125 7.36449C165.305 6.77286 166.54 6.0574 167.514 5.27883C168.031 4.86532 168.468 4.44008 168.744 3.99868C168.975 3.63362 169.066 3.25972 168.79 2.89857C168.679 2.75225 168.513 2.74934 168.343 2.77674C168.162 2.8061 167.976 2.86872 167.79 2.94947C166.565 3.47504 165.3 4.70285 164.893 5.27883C164.416 5.9468 164.18 6.65345 164.125 7.36449Z" fill="#ECECEC"/>
</svg>
