<svg width="368" height="318" viewBox="0 0 368 318" fill="none" xmlns="http://www.w3.org/2000/svg">
<path opacity="0.1" fill-rule="evenodd" clip-rule="evenodd" d="M247.804 83.2237C264.23 81.6373 278.12 86.4196 292.122 92.0094C338.045 110.374 357.472 146.014 333.389 186.989C295.917 250.55 195.403 302.628 111.065 296.62C92.3895 295.308 67.3544 295.334 46.7759 279.19C27.6342 264.179 25.4929 243.492 30.5428 223.371C35.6658 202.747 48.2632 182.679 58.6752 169.46C104.212 111.771 203.016 51.4226 301.424 62.4853C303.443 62.6816 305.287 61.611 305.645 60.0803C306.003 58.5496 304.81 57.1257 302.931 56.9102C201.633 45.5278 99.6146 107.323 52.7449 166.694C39.7948 183.173 23.5694 209.937 21.419 235.61C19.9965 253.151 25.0478 270.184 41.6545 283.317C63.5173 300.523 90.1607 300.809 109.987 302.215C197.056 308.426 301.048 254.751 339.656 189.118C365.592 145.07 344.936 106.693 295.551 86.9572C280.486 80.8748 265.291 75.9185 247.461 77.6422C245.496 77.8331 243.983 79.2379 244.193 80.7624C244.264 82.3062 245.978 83.3955 247.804 83.2237Z" fill="#3B3B3B"/>
<g opacity="0.7">
<path fill-rule="evenodd" clip-rule="evenodd" d="M120.903 24.2318C106.451 51.1047 77.5815 62.0301 50.7684 46.9013C49.8758 46.3975 48.7439 46.7125 48.2401 47.5941C47.7363 48.4914 48.0512 49.6249 48.9438 50.1286C77.6839 66.3594 108.68 54.7886 124.171 25.995C124.656 25.0977 124.317 23.964 123.415 23.476C122.513 23.0037 121.387 23.3345 120.903 24.2318Z" fill="white"/>
<path d="M73.3328 35.376C76.3181 35.376 78.7382 32.956 78.7382 29.9707C78.7382 26.9854 76.3181 24.5654 73.3328 24.5654C70.3475 24.5654 67.9275 26.9854 67.9275 29.9707C67.9275 32.956 70.3475 35.376 73.3328 35.376Z" fill="white"/>
<path d="M95.7093 29.626C98.6362 29.626 101.009 27.2533 101.009 24.3264C101.009 21.3994 98.6362 19.0267 95.7093 19.0267C92.7823 19.0267 90.4096 21.3994 90.4096 24.3264C90.4096 27.2533 92.7823 29.626 95.7093 29.626Z" fill="white"/>
</g>
</svg>
